<svg xmlns="http://www.w3.org/2000/svg" viewBox="0 0 100 100">
  <rect width="100" height="100" fill="#080808"/>
  <line stroke="#8a2318" stroke-width="1.5" x1="50" y1="50" x2="50" y2="17"/>
  <line stroke="#8a2318" stroke-width="1.5" x1="50" y1="50" x2="21" y2="63"/>
  <line stroke="#8a2318" stroke-width="1.5" x1="50" y1="50" x2="79" y2="63"/>
  <line stroke="#6b1c13" stroke-width="0.8" x1="50" y1="17" x2="21" y2="63"/>
  <line stroke="#6b1c13" stroke-width="0.8" x1="50" y1="17" x2="79" y2="63"/>
  <line stroke="#6b1c13" stroke-width="0.8" x1="21" y1="63" x2="79" y2="63"/>
  <line stroke="#7a1f16" stroke-width="1" x1="50" y1="17" x2="31" y2="5"/>
  <line stroke="#7a1f16" stroke-width="1" x1="50" y1="17" x2="69" y2="5"/>
  <line stroke="#7a1f16" stroke-width="1" x1="21" y1="63" x2="6" y2="50"/>
  <line stroke="#7a1f16" stroke-width="1" x1="21" y1="63" x2="22" y2="84"/>
  <line stroke="#7a1f16" stroke-width="1" x1="79" y1="63" x2="94" y2="50"/>
  <line stroke="#7a1f16" stroke-width="1" x1="79" y1="63" x2="78" y2="84"/>
  <circle fill="#7b241c" cx="31" cy="5" r="3"/>
  <circle fill="#7b241c" cx="69" cy="5" r="3"/>
  <circle fill="#7b241c" cx="6" cy="50" r="3"/>
  <circle fill="#7b241c" cx="22" cy="84" r="3"/>
  <circle fill="#7b241c" cx="94" cy="50" r="3"/>
  <circle fill="#7b241c" cx="78" cy="84" r="3"/>
  <circle fill="#c0392b" cx="50" cy="17" r="5.5"/>
  <circle fill="#c0392b" cx="21" cy="63" r="5.5"/>
  <circle fill="#c0392b" cx="79" cy="63" r="5.5"/>
  <circle fill="#e74c3c" cx="50" cy="50" r="8"/>
</svg>
